<?xml version="1.0" encoding="UTF-8" standalone="no"?>
<!-- Created with Inkscape (http://www.inkscape.org/) -->

<svg
   width="2000"
   height="1275"
   viewBox="0 0 529.16666 337.34376"
   version="1.1"
   id="svg5"
   inkscape:version="1.1.2 (0a00cf5339, 2022-02-04)"
   sodipodi:docname="logo.svg"
   xmlns:inkscape="http://www.inkscape.org/namespaces/inkscape"
   xmlns:sodipodi="http://sodipodi.sourceforge.net/DTD/sodipodi-0.dtd"
   xmlns="http://www.w3.org/2000/svg"
   xmlns:svg="http://www.w3.org/2000/svg">
  <sodipodi:namedview
     id="namedview7"
     pagecolor="#505050"
     bordercolor="#eeeeee"
     borderopacity="1"
     inkscape:pageshadow="0"
     inkscape:pageopacity="0"
     inkscape:pagecheckerboard="0"
     inkscape:document-units="px"
     showgrid="false"
     units="px"
     width="1024px"
     showguides="false"
     inkscape:zoom="0.18387108"
     inkscape:cx="369.82434"
     inkscape:cy="407.8945"
     inkscape:window-width="1920"
     inkscape:window-height="975"
     inkscape:window-x="0"
     inkscape:window-y="30"
     inkscape:window-maximized="1"
     inkscape:current-layer="layer1" />
  <defs
     id="defs2" />
  <g
     inkscape:label="Layer 1"
     inkscape:groupmode="layer"
     id="layer1">
    <g
       id="g17847">
      <g
         id="g15801"
         style="fill:#6496ff;fill-opacity:1">
        <path
           id="path857"
           style="opacity:1;fill:#6496ff;fill-opacity:1;stroke-width:5.00031;stroke-linecap:round;stroke-linejoin:round;paint-order:fill markers stroke"
           d="M 0,0 V 1000 H 150 V 600.00001 h 250.00001 l 200,-200 V 200 l -200,-200 z M 150,150 H 350 L 450.00001,250 V 350 L 350,450.00001 H 150 Z"
           transform="scale(0.26458333)"
           sodipodi:nodetypes="cccccccccccccccc" />
        <path
           style="opacity:1;fill:#6496ff;fill-opacity:1;stroke-width:1.323;stroke-linecap:round;stroke-linejoin:round;paint-order:fill markers stroke"
           d="m 158.75,125.67708 v 72.76041 l 19.84375,19.84376 h 19.84375 v -92.60417 h 39.6875 v 171.97916 l -39.6875,39.6875 h -79.375 v -39.6875 h 59.53125 L 198.4375,277.81249 V 257.96875 H 158.75 l -39.6875,-39.68751 v -52.91666 z"
           id="path5858"
           sodipodi:nodetypes="ccccccccccccccccc" />
      </g>
      <g
         id="g15841"
         style="fill:#57f257;fill-opacity:1">
        <path
           style="opacity:1;fill:#57f257;fill-opacity:1;stroke-width:1.323;stroke-linecap:round;stroke-linejoin:round;paint-order:fill markers stroke"
           d="M 238.125,112.44792 V 0 h 52.91667 L 317.5,39.6875 343.95833,0 H 396.875 V 264.58333 H 357.1875 V 39.6875 L 317.5,105.83333 277.8125,39.6875 V 264.58333 H 251.35417 V 112.44792 Z"
           id="path9092"
           sodipodi:nodetypes="ccccccccccccccc" />
        <path
           id="path11544"
           style="opacity:1;fill:#57f257;fill-opacity:1;stroke-width:5.00031;stroke-linecap:round;stroke-linejoin:round;paint-order:fill markers stroke"
           d="m 1650,500 -100,100 v 300 l 100,100 h 200 L 2000,850 V 650 L 1850,500 Z m 50,150 h 100 l 50,50 v 100 l -50,50 h -100 l -50,-50 V 700 Z"
           transform="scale(0.26458333)" />
      </g>
    </g>
  </g>
</svg>
